<?xml version="1.0" encoding="utf-8"?>
<!-- Designed by Vexels.com - 2020 All Rights Reserved - https://vexels.com/terms-and-conditions/  -->
<svg version="1.1" id="Layer_1" xmlns="http://www.w3.org/2000/svg" xmlns:xlink="http://www.w3.org/1999/xlink" x="0px" y="0px"
	 viewBox="0 0 1200 1200" enable-background="new 0 0 1200 1200" xml:space="preserve">
<path fill="#503271" d="M1108.443,942.7l-0.616-0.057l-77.308-6.722V311.351l70.723-6.911c24.91-1.293,42.932-20.344,42.932-45.493
	v-30.892c0-25.975-19.59-45.562-45.569-45.562h-44.441c0.708-28.754-5.799-58.083-5.799-58.083
	c-22.917,10.89-42.496,34.959-51.797,58.083H860.815c-18.773,0-35.127,11.354-41.753,28.956l-57.093,140.384
	c-19.821-15.259-66.113-14.083-66.113-14.083c6.248,24.369,31.352,47.692,50.919,51.444L600.914,747.848L420.477,303.152
	c0.663-10.673-3.317-21.54-11.828-29.312c-0.028-0.025-0.068-0.051-0.097-0.076l-4.596-11.327c2.818-0.249,5.317-0.675,7.288-1.371
	c19.06-6.723,29.059-27.624,22.335-46.682c-6.723-19.059-27.624-29.059-46.683-22.335c-3.227,1.138-7.067,3.647-11.193,6.952
	c-0.094-0.113-0.186-0.227-0.281-0.338c2.743-4.484,4.737-8.587,5.459-11.916c4.281-19.751-8.259-39.234-28.01-43.515
	s-39.234,8.259-43.515,28.01c-0.636,2.934-0.637,6.805-0.191,11.253h-3.346c-2.039-3.466-4.1-6.304-6.141-8.168
	c-14.923-13.628-38.07-12.579-51.698,2.345c-1.669,1.828-3.111,3.781-4.341,5.823H100.809c-26.308,0-46.147,19.587-46.147,45.562
	v30.892c0,24.776,18.679,44.241,43.542,45.497l43.688,4.269c0.345,2.714,0.844,5.412,1.548,8.076c0.767,2.91,1.718,5.75,2.636,8.493
	c1.265,3.777,2.457,7.344,3.188,11.004c3.332,16.72-4.787,34.49-18.885,41.335c-7.191,3.493-16.323,3.675-24.414,0.495
	c-7.395-2.905-12.853-8.085-15.375-14.585c-2.511-6.474-1.829-13.594,1.733-18.138c3.641-4.634,10.78-6.078,14.984-3.018
	c1.934,1.415,4.66,0.988,6.072-0.96c1.413-1.942,0.982-4.66-0.96-6.072c-8.026-5.84-20.36-3.692-26.94,4.682
	c-5.503,7.018-6.653,17.229-2.998,26.648c2.957,7.63,8.781,13.853,16.591,17.854c-18.456,11.824-31.681,49.584-31.681,49.584
	c31.909,3.571,74.375-26.287,57.287-45.69c3.321-0.58,6.537-1.537,9.499-2.975c17.544-8.521,27.695-30.385,23.613-50.858
	c-0.835-4.198-2.171-8.199-3.468-12.066c-0.914-2.732-1.778-5.314-2.474-7.955c-0.435-1.647-0.755-3.312-1.033-4.982l17.498,1.71
	v624.694l-76.212,6.662l-0.498,0.047C67.482,945.133,50,964.456,50,988.646v30.888c0,25.977,19.587,45.566,45.562,45.566H368.91
	c26.308,0,46.147-19.589,46.147-45.566v-30.888c0-25.129-18.717-44.851-43.624-46.085l-67.696-6.37V503.266l223.056,545.302
	c0.372,0.911,0.788,1.828,1.234,2.72c7.611,15.22,23.077,24.302,41.374,24.302h12.241c18.26,0,33.712-9.058,41.333-24.229
	c0.483-0.961,0.929-1.948,1.329-2.936l223.002-551.333v438.756l-81.856,6.785l-0.7,0.064c-24.1,2.432-41.586,21.756-41.586,45.947
	v30.888c0,25.977,19.59,45.566,45.569,45.566h335.707c25.974,0,45.562-19.589,45.562-45.566v-30.888
	C1150,964.463,1132.523,945.14,1108.443,942.7z M1062.783,956.186c-1.752,5.851-3.862,11.577-7.141,16.521
	c-7.938,11.961-23.237,19.579-40.919,20.38c-16.641,0.722-33.401-4.151-47.924-8.918c-4.841-7.803-11.343-14.94-19.197-20.994
	c1.336-0.047,2.758-0.283,4.281-0.76c28.058-8.786-7.655-56.343-7.655-56.343c-11.33,13.409-14.262,37.303-8.128,49.499
	c-1.252-0.731-2.506-1.457-3.741-2.164c-9.314-5.331-18.11-10.367-22.73-18.75c-2.845-5.164-4.125-11.87-3.91-20.496
	c0.49-19.699,7.877-39.012,20.486-54.099c9.012,3.902,19.717,3.503,28.71-2.044c2.66-1.64,5.617-4.682,8.674-8.546
	c-1.684,4.63-2.721,8.745-2.721,11.869c0,17.182,13.929,31.111,31.112,31.111c8.18,0,15.599-3.178,21.145-8.343v67.758
	L1062.783,956.186z M1007.347,799.629c3.267,1.899,4.376,6.087,2.476,9.354c-1.899,3.267-6.087,4.375-9.354,2.476
	c-0.794-0.462-1.646,0.028-1.646,0.947c0,3.779-3.064,6.842-6.842,6.842c-3.779,0-6.842-3.064-6.842-6.842
	c0-0.687-0.724-1.091-1.309-0.73c-3.216,1.983-7.431,0.984-9.415-2.233c-1.984-3.216-0.984-7.432,2.232-9.415
	c1.072-0.661,1.057-1.804-0.032-2.437c-3.267-1.899-4.376-6.087-2.476-9.354c1.899-3.267,6.087-4.376,9.354-2.476
	c0.794,0.462,1.646-0.029,1.646-0.947c0-3.779,3.064-6.842,6.842-6.842c3.779,0,6.842,3.064,6.842,6.842
	c0,0.687,0.724,1.091,1.309,0.731c3.216-1.983,7.432-0.984,9.415,2.233c1.984,3.216,0.984,7.432-2.232,9.415
	C1006.243,797.853,1006.258,798.995,1007.347,799.629z M1013.126,295.574v226.97c-2.63-5.299-6.555-9.588-11.558-12.412
	c-7.281-4.116-16.357-4.515-24.89-1.11c-8.535,3.409-14.837,9.948-17.286,17.946c-1.905,6.222-1.013,13.481,2.333,18.939
	c2.624,4.286,6.571,7.083,11.114,7.884c2.338,0.419,4.623-1.161,5.036-3.53c0.416-2.364-1.164-4.62-3.53-5.036
	c-2.63-0.461-4.283-2.355-5.206-3.861c-2.018-3.292-2.593-8.054-1.43-11.848c1.648-5.385,6.206-10.027,12.193-12.417
	c5.985-2.389,12.482-2.166,17.391,0.603c6.749,3.813,9.3,10.373,10.251,15.205c1.939,9.846-0.886,21.382-7.202,29.391
	c-8.411,10.667-22.008,16.96-37.304,17.266c-15.265,0.326-29.139-5.438-37.972-15.763c-10.151-11.863-14.392-28.995-12.638-48.587
	c0.37,0.389,0.703,0.782,1.113,1.166c32.01,29.932,67.445-51.328,67.445-51.328c-20.067-3.778-44.658,3.775-59.876,15.31
	c3.576-9.075,7.819-18.107,11.962-26.862c8.278-17.481,16.836-35.56,20.457-55.105c4.626-24.942,0.624-51.146-10.729-73.714
	c7.592-2.63,14.322-7.862,18.677-15.353c9.654-16.605,4.018-37.891-12.587-47.544c-5.537-3.22-16.213-4.951-27.983-5.831
	c11.744-1.186,22.371-3.195,27.822-6.557c7.161-4.416,12.159-11.009,14.668-18.398c7.372-0.791,14.852-0.506,22.158,0.933
	c19.508,3.839,36.944,15.466,53.808,26.707c3.021,2.016,6.036,4.028,9.059,5.993c14.587,9.485,32.803,19.74,52.395,22.381
	c-0.28,0.019-0.549,0.061-0.832,0.072L1013.126,295.574z M921.431,639.212c-0.039,0.008-0.07,0.022-0.109,0.03
	c0.019-0.049,0.036-0.098,0.055-0.147C921.393,639.135,921.415,639.173,921.431,639.212z M853.61,255.467
	c-3.652-2.123-4.891-6.805-2.768-10.457c2.123-3.652,6.805-4.891,10.457-2.768c0.888,0.517,1.841-0.032,1.841-1.059
	c0-4.224,3.424-7.648,7.649-7.648c4.224,0,7.648,3.424,7.648,7.648c0,0.769,0.81,1.22,1.464,0.817
	c3.595-2.217,8.308-1.1,10.525,2.495c2.217,3.595,1.1,8.307-2.495,10.525c-1.199,0.74-1.182,2.016,0.035,2.724
	c3.652,2.123,4.891,6.805,2.768,10.457c-2.123,3.652-6.804,4.891-10.456,2.768c-0.888-0.516-1.84,0.032-1.84,1.059
	c0,4.224-3.424,7.649-7.648,7.649c-4.224,0-7.649-3.424-7.649-7.649c0-0.768-0.81-1.22-1.464-0.817
	c-3.595,2.217-8.307,1.1-10.525-2.496c-2.217-3.595-1.1-8.307,2.495-10.525C854.845,257.452,854.828,256.175,853.61,255.467z
	 M1098.605,199.886c16.326,0,28.175,11.846,28.175,28.168v30.892c0,7.794-2.713,14.557-7.315,19.507
	c-0.422-0.066-0.855-0.091-1.302-0.025c-23.627,3.389-47.158-9.481-65.002-21.088c-2.992-1.945-5.979-3.938-8.974-5.934
	c-7.31-4.874-14.728-9.81-22.42-14.222c19.293-0.994,27.809-17.334,30.926-37.298H1098.605z M994.857,225.268
	c-2.498-0.729-5.036-1.36-7.62-1.868c-7.285-1.431-14.723-1.839-22.091-1.291c0.471-6.978-1.12-14.161-5.071-20.568
	c-0.356-0.577-0.757-1.107-1.14-1.655h32.637C989.958,209.738,990.853,218.621,994.857,225.268z M783.648,486.4
	c-0.321,0.44-0.534,0.922-0.669,1.418c-3.566,2.421-6.859,5.117-9.746,8.038c-3.879,3.927-7.198,8.189-10.074,12.64
	c-4.243-16.258-16.818-33.951-16.818-33.951c-17.975,20.187-17.629,64.533,5.214,59.654c-3.032,10.167-4.547,20.149-5.242,28.664
	c-0.167,2.044-0.3,4.105-0.436,6.166c-0.614,9.41-1.195,18.297-4.77,26.186c-1.925,4.249-5.305,8.281-9.308,10.919
	c-0.096-5.656-1.557-11.658-5.039-15.78c-2.743-3.244-6.44-4.988-10.528-4.79c-3.655,0.099-7.097,1.798-9.69,4.787
	c-2.789,3.219-4.178,7.553-3.711,11.596c0.801,6.987,6.333,13.085,13.764,15.177c1.509,0.427,3.021,0.677,4.524,0.764
	c-9.436,32.948-40.012,58.64-74.019,62.567l125.133-307.688c12.307,19.011,19.869,36.474,22.949,53.181
	C799.357,448.573,795.153,470.606,783.648,486.4z M722.995,609.216c-1.376,0.059-2.709-0.085-4.043-0.461
	c-3.944-1.113-7.092-4.394-7.482-7.802c-0.19-1.639,0.442-3.519,1.642-4.903c0.566-0.651,1.752-1.75,3.355-1.795
	c0.054,0,0.105,0,0.156,0c1.415,0,2.497,0.532,3.493,1.71C722.375,598.637,723.496,604.047,722.995,609.216z M643.402,689.546
	c3.159-0.195,6.295-0.568,9.402-1.1c-0.142,0.364-0.298,0.706-0.423,1.096c-9.472,29.391,52.965,27.588,52.965,27.588
	c-3.955-15.234-18.176-29.85-31.075-35.134c27.294-11.893,49.261-36.393,56.209-65.536c8.094-2.933,15.038-9.908,18.549-17.657
	c4.229-9.331,4.889-19.437,5.526-29.21c0.133-2.016,0.263-4.026,0.427-6.024c1.495-18.331,6.95-43.9,24.44-61.599
	c14.463-14.644,36.139-20.314,53.077-14.658L647.171,945.503c-8.545-3.005-18.292-2.343-26.603,2.782
	c-2.659,1.64-5.617,4.683-8.673,8.546c1.683-4.63,2.721-8.744,2.721-11.869c0-17.183-13.929-31.112-31.112-31.112
	c-17.182,0-31.111,13.929-31.111,31.112c0,4.177,1.847,10.117,4.63,16.707c-4.298-5.718-8.505-10.3-12.117-12.4
	c-12.567-7.307-28.109-4.792-37.834,5.142l-87.756-214.534c8.743-5.506,14.565-15.222,14.565-26.317
	c0-4.177-1.847-10.116-4.63-16.707c4.298,5.718,8.505,10.3,12.117,12.4c0.435,0.253,0.885,0.455,1.327,0.684
	c1.584,18.754,3.624,37.933,9.926,56.21c7.961,23.078,22.033,40.925,39.625,50.253c2.616,1.387,5.306,2.526,8.025,3.565
	c-26.484,14.375,9.319,73.597,9.319,73.597c17.832-17.259,24.745-51.372,16.173-67.548c4.955,0.669,9.924,1.188,14.845,1.678
	c7.227,0.722,14.701,1.466,21.801,2.749c21.473,3.876,45.027,17.563,46.009,38.45c0.147,3.193-0.252,6.194-1.186,8.912
	c-1.704,4.946-5.73,9.195-11.046,11.652c-5.319,2.46-11.157,2.774-16.029,0.869c-4.869-1.908-8.943-6.112-11.177-11.531
	c-2.231-5.416-2.302-11.264-0.19-16.049c0.971-2.197-0.025-4.765-2.222-5.733c-2.188-0.971-4.765,0.023-5.733,2.222
	c-3.063,6.939-3.026,15.276,0.105,22.874c3.128,7.598,8.977,13.543,16.046,16.312c3.117,1.22,6.477,1.829,9.906,1.826
	c4.337,0,8.776-0.971,12.943-2.896c7.457-3.448,13.15-9.543,15.621-16.72c1.291-3.762,1.846-7.847,1.648-12.145
	c-0.154-3.278-0.722-6.398-1.636-9.363c0.332,0.166,0.619,0.352,0.965,0.512c46.543,21.388,55.867-81.805,55.867-81.805
	c-33.759,4.586-69.257,38.171-69.435,62.156c-10.247-9.38-24.69-15.538-38.91-18.106c-4.59-0.828-9.257-1.424-13.898-1.941
	c-0.81-0.663-1.858-1.045-3.011-0.977c-3.788,0.147-6.967-5.699-7.85-7.522c-8.082-16.643-9.014-36.919-2.494-54.236
	c6.052-16.079,18.621-29.83,34.039-37.464l30.157,74.323L643.402,689.546z M598.869,1008.715c3.267,1.899,4.376,6.087,2.476,9.354
	c-1.899,3.267-6.087,4.376-9.354,2.476c-0.794-0.462-1.646,0.029-1.646,0.947c0,3.779-3.063,6.842-6.842,6.842
	c-3.779,0-6.842-3.064-6.842-6.842c0-0.687-0.724-1.091-1.309-0.731c-3.216,1.983-7.432,0.984-9.415-2.233
	c-1.984-3.216-0.984-7.431,2.232-9.415c1.073-0.661,1.058-1.804-0.032-2.437c-3.267-1.899-4.375-6.087-2.476-9.354
	c1.9-3.267,6.087-4.375,9.354-2.476c0.794,0.462,1.647-0.028,1.647-0.947c0-3.779,3.063-6.842,6.842-6.842
	c3.779,0,6.842,3.063,6.842,6.842c0,0.687,0.724,1.091,1.309,0.731c3.216-1.983,7.432-0.984,9.415,2.232
	c1.984,3.216,0.984,7.432-2.232,9.415C597.765,1006.939,597.78,1008.082,598.869,1008.715z M384.749,655.373
	c0.536-1.251,1.439-2.359,2.686-3.128c1.073-0.661,1.058-1.804-0.031-2.437c-3.267-1.899-4.376-6.087-2.476-9.355
	c1.899-3.267,6.087-4.375,9.354-2.476c0.794,0.462,1.646-0.028,1.646-0.947c0-3.779,3.063-6.842,6.842-6.842
	c3.779,0,6.842,3.063,6.842,6.842c0,0.687,0.724,1.091,1.309,0.731c3.216-1.983,7.432-0.984,9.415,2.232
	c1.983,3.216,0.984,7.432-2.232,9.415c-1.073,0.661-1.058,1.804,0.031,2.437c3.267,1.899,4.376,6.088,2.477,9.355
	c-1.9,3.267-6.087,4.375-9.354,2.476c-0.794-0.462-1.647,0.028-1.647,0.947c0,3.779-3.063,6.842-6.842,6.842
	c-3.779,0-6.842-3.064-6.842-6.842c0-0.687-0.724-1.091-1.309-0.731c-1.936,1.194-4.228,1.289-6.184,0.488L384.749,655.373z
	 M412.553,532.454c0.264-6.072,0.154-12.156-0.201-18.225c0.104-1.812,0.001-3.543-0.369-5.163
	c-1.421-16.267-5.024-32.342-10.731-47.635c4.375,1.847,8.742,3.695,13.059,5.603c35.86,15.862,61.711,35.171,77.253,57.579
	l75.893,187.041c-9.653,4.68-18.322,11.497-25.333,19.707c-5.641-16.839-27.231-35.587-27.231-35.587
	c-11.566,21.712-3.664,59.291,13.716,58.242c-0.016,0.042-0.036,0.084-0.052,0.126c-7.344,19.508-6.29,42.349,2.811,61.098
	c0.5,1.03,1.028,1.997,1.577,2.906c-13.104-1.456-25.494-3.527-36.627-9.429c-15.638-8.292-28.236-24.417-35.478-45.406
	c-5.554-16.106-7.644-33.328-9.149-50.329c12.453,2.157,25.484-3.423,32.208-14.989c8.636-14.855,3.594-33.897-11.26-42.533
	c-4.953-2.88-14.504-4.429-25.033-5.216c10.505-1.061,20.013-2.858,24.889-5.866c14.625-9.019,19.169-28.187,10.15-42.811
	c-9.019-14.625-28.187-19.169-42.811-10.15c-2.66,1.64-5.617,4.683-8.674,8.546c1.683-4.63,2.721-8.744,2.721-11.869
	c0-14.647-10.135-26.896-23.764-30.203C411.184,549.547,412.177,541.018,412.553,532.454z M316.861,264.092
	c-4.191,1.478-8.788-0.72-10.267-4.912c-1.479-4.191,0.72-8.788,4.912-10.267c1.398-0.493,1.665-1.81,0.571-2.809
	c-3.282-2.998-3.513-8.088-0.516-11.37c2.997-3.282,8.088-3.513,11.37-0.516c0.798,0.729,1.9,0.377,2.129-0.679
	c0.941-4.344,5.226-7.102,9.57-6.16c4.344,0.942,7.102,5.226,6.161,9.57c-0.171,0.79,0.561,1.435,1.323,1.166
	c4.191-1.478,8.788,0.72,10.267,4.912c1.479,4.192-0.72,8.788-4.912,10.267c-1.398,0.493-1.665,1.81-0.571,2.809
	c3.282,2.997,3.513,8.088,0.516,11.37c-2.997,3.282-8.088,3.513-11.37,0.516c-0.798-0.729-1.9-0.377-2.129,0.679
	c-0.942,4.343-5.226,7.102-9.57,6.16c-4.343-0.942-7.101-5.227-6.16-9.57C318.356,264.468,317.623,263.823,316.861,264.092z
	 M332.558,356.892c0.464-0.815,0.627-1.715,0.54-2.581c8.148-5.043,14.33-13.239,16.52-23.343c1.041-4.802,0.398-12.09-1.16-20.358
	c3.516,7.644,7.21,13.96,10.838,17.272c14.872,13.582,37.905,12.577,51.552-2.2l70.579,173.945
	c-16.019-15.316-37.229-28.884-63.599-40.548c-3.519-1.557-7.088-3.062-10.655-4.571c36.402-13.09,0.27-93.432,0.27-93.432
	c-23.992,18.157-37.694,57.459-31.201,79.466c-9.651-4.991-18.801-10.719-26.712-17.925
	C332.176,406.802,320.328,378.396,332.558,356.892z M72.055,258.947v-30.892c0-16.322,12.093-28.168,28.754-28.168h137.645
	c-0.41,10.403,3.582,20.911,11.872,28.481c4.977,4.544,15.569,8.705,27.477,12.234c-12.341-1.398-23.718-1.701-30.073,0.54
	c-0.619,0.218-1.202,0.492-1.802,0.74c-13.37-13.015-35.505-17.354-55.873-10.708c-7.096,2.313-13.651,5.904-19.512,10.429
	c-0.424-1.067-0.964-2.15-1.696-3.256c-17.057-25.741-54.607,24.175-54.607,24.175c10.941,4.883,25.321,4.896,36.937,1.633
	c-4.728,8.379-7.91,17.628-9.184,27.09l-42.544-4.157C83.494,286.46,72.055,274.82,72.055,258.947z M150.602,292.086
	c3.17-23.366,19.58-45.286,42.149-52.646c16.374-5.34,33.947-2.51,45.196,6.93c-12.456,9.335-18.004,25.999-12.551,41.454
	c6.724,19.059,27.624,29.059,46.683,22.335c3.465-1.222,7.623-3.983,12.1-7.662c-3.089,4.903-5.307,9.374-6.086,12.965
	c-2.066,9.533-0.185,18.985,4.505,26.714c-15.15,19.88-34.404,35.886-51.364,48.472c1.296-17.693-11.076-43.18-11.076-43.18
	c-19.12,15.384-26.627,52.901-10.388,58.904c-6.914,5.345-13.548,11.15-19.15,18.035c-1.815,2.232-3.441,4.542-4.912,6.895V295.517
	L150.602,292.086z M370.23,959.917c15.976,0.621,27.434,12.51,27.434,28.728v30.888c0,16.324-12.092,28.172-28.754,28.172H220.804
	c2.924-8.895,9.3-17.006,17.95-22.252c11.267-6.831,26.189-8.932,40.944-5.758c5.863,1.263,11.494,3.236,17.453,5.328
	c3.782,1.328,7.695,2.701,11.658,3.867c13.008,3.825,23.777,4.224,32.941,1.229c10.644-3.474,21.269-13.773,20.98-26.727
	c-0.153-6.811-4.077-13.504-10.242-17.473c-5.424-3.496-11.601-4.187-16.941-1.897c-8.088,3.465-12.592,13.136-10.036,21.558
	c0.696,2.302,3.125,3.595,5.424,2.899c2.299-0.696,3.595-3.125,2.899-5.424c-1.265-4.167,1.135-9.325,5.138-11.038
	c2.641-1.138,5.849-0.688,8.81,1.214c3.711,2.389,6.166,6.452,6.251,10.353c0.193,8.626-7.576,15.851-14.984,18.268
	c-7.434,2.432-16.524,2.004-27.786-1.308c-3.748-1.101-7.553-2.438-11.233-3.728c-5.951-2.086-12.102-4.246-18.503-5.625
	c-1.939-0.418-3.882-0.732-5.823-0.989C286.362,995.944,289,966.808,289,966.808c-24.197,3.287-49.862,31.278-39.468,44.881
	c-5.469,1.42-10.642,3.515-15.285,6.331c-11.276,6.835-19.379,17.786-22.5,29.686H95.562c-16.322,0-28.168-11.848-28.168-28.172
	v-30.888c0-8.497,3.288-15.895,8.813-21.071c0.647,3.842,2.012,7.629,4.184,11.15c9.019,14.625,28.187,19.169,42.812,10.149
	c2.66-1.64,5.617-4.683,8.674-8.546c-1.683,4.629-2.721,8.744-2.721,11.869c0,17.182,13.929,31.111,31.111,31.111
	s31.112-13.929,31.112-31.111c0-4.177-1.847-10.117-4.63-16.707c4.298,5.718,8.505,10.3,12.116,12.4
	c14.854,8.636,33.897,3.595,42.533-11.26c8.636-14.854,3.595-33.897-11.26-42.533c-4.953-2.88-14.504-4.429-25.033-5.216
	c10.505-1.061,20.012-2.858,24.889-5.866c14.625-9.019,19.169-28.187,10.15-42.811c-9.019-14.625-28.187-19.169-42.811-10.15
	c-2.66,1.64-5.617,4.683-8.674,8.546c1.683-4.63,2.721-8.744,2.721-11.869c0-6.641-2.119-12.762-5.671-17.807v-66.552
	c6.458-15.937,18.421-29.742,33.649-37.631c4.721-2.445,9.662-4.353,14.859-6.323c-5.739,14.121-7.545,28.778-5.399,43.368
	c-1.074-0.162-2.208-0.251-3.452-0.198c-30.851,1.325-7.474,59.25-7.474,59.25c9.747-6.794,17.131-18.955,20.374-30.502
	c10.266,19.122,27.659,34.366,48.08,41.806v99.882L370.23,959.917z M286.343,842.819c-19.868-8.184-36.213-24.609-44.153-44.59
	c-8.363-21.051-7.273-42.937,3.154-63.289c0.178-0.348,0.287-0.711,0.366-1.076c2.081-0.896,4.154-1.831,6.185-2.876
	c14.586-7.506,26.622-19.651,34.448-34.054V842.819z M286.343,414.803v256.451c-3.717,20.472-16.641,39.081-34.468,49.786
	c28.12-27.959-44.19-62.679-44.19-62.679c-6.544,28.922,12.896,69.365,32.816,68.28c-2.7,1.115-5.468,2.166-8.32,3.245
	c-5.571,2.109-11.335,4.289-16.822,7.131c-11.977,6.204-22.135,15.69-29.652,26.955V485.671
	c9.147,11.971,23.906,19.668,38.337,27.156c18.667,9.688,36.302,18.84,41.785,36.2c3.626,11.471,0.249,24.794-8.402,33.156
	c-6.978,6.741-17.076,9.54-25.119,6.973c-8.425-2.692-14.209-11.899-12.377-19.706c0.9-3.853,4.071-7.315,8.272-9.031
	c3.669-1.503,7.372-1.348,10.149,0.408c2.024,1.285,4.714,0.688,5.999-1.345c1.288-2.027,0.685-4.714-1.345-5.999
	c-5.189-3.287-11.785-3.697-18.096-1.115c-6.763,2.766-11.916,8.552-13.45,15.1c-2.854,12.182,5.481,25.909,18.2,29.971
	c2.893,0.926,5.928,1.373,8.997,1.373c8.793,0,17.878-3.677,24.811-10.376c10.97-10.599,15.25-27.489,10.656-42.031
	c-6.571-20.796-26.654-31.217-46.077-41.295c-0.47-0.244-0.936-0.487-1.405-0.73c0.206-0.017,0.396-0.01,0.607-0.034
	c30.687-3.444,3.382-59.623,3.382-59.623c-15.528,12.494-23.4,39.594-17.115,52.555c-13.012-7.548-23.693-16.116-27.058-29.428
	c-0.351-1.389-0.595-2.814-0.751-4.264v-7.34c0.906-8.801,4.934-18.083,11.658-26.351c8.105-9.959,19.027-17.796,29.592-25.377
	l3.864-2.78c18.207-13.164,40.051-30.425,57.33-52.518c4.778,4.732,10.892,8.228,17.951,9.758
	c5.459,1.183,10.884,1.041,15.987-0.142c-9.549,24.495,2.854,53.143,21.585,70.207c13.464,12.267,29.77,20.348,46.223,27.522
	c5.364,12.43,9.229,25.496,11.537,38.846c-19.631-13.165-58.667-14.488-58.667-14.488c6.012,31.036,43.28,62.168,61.111,49.943
	c-0.015,0.403,0.001,0.807-0.017,1.21c-0.362,8.317-1.347,16.728-2.405,24.974c-16.569,0.693-29.8,14.306-29.8,31.046
	c0,4.177,1.847,10.117,4.63,16.707c-4.298-5.718-8.505-10.3-12.116-12.4c-2.026-1.178-4.142-2.029-6.286-2.7L286.343,414.803z
	 M835.769,479.227c-12.712-4.536-26.329-3.436-38.473,1.155c6.298-13.102,9.024-28.55,7.874-44.615
	c2.489,1.252,5.537,1.801,9.21,1.437c35.1-3.486,4.733-68.052,4.733-68.052c-10.398,8.149-17.909,21.955-21.032,35.022
	c-4.832-13.135-12.053-26.753-21.874-41.178l16.352-40.21c10.87,6.862,25.117,7.434,36.797,0.231
	c2.973-1.833,6.279-5.234,9.696-9.553c-1.882,5.175-3.042,9.775-3.042,13.267c0,19.207,15.57,34.777,34.777,34.777
	c19.207,0,34.777-15.57,34.777-34.777c0-4.669-2.065-11.309-5.176-18.676c4.805,6.392,9.507,11.514,13.544,13.861
	c6.293,3.658,13.257,5.111,20.006,4.613c11.332,21.342,15.464,46.431,11.041,70.281c-2.182,11.772-6.218,22.869-11.034,33.977
	c-2.362-17.406-31.815-37.995-31.815-37.995c-10.009,24.731,5.496,66.185,25.274,52.051c0.082-0.059,0.144-0.123,0.224-0.182
	c-0.8,1.701-1.603,3.402-2.415,5.119c-4.564,9.639-9.283,19.61-13.15,29.773c-6.122,16.095-17.449,55.029,2.115,84.257
	c0.04,0.151,0.065,0.304,0.122,0.454c14.814,39.073,1.97,86.489-30.541,112.746c-6.893,5.566-12.686,8.391-18.229,8.884
	c-0.288,0.026-0.565,0.081-0.833,0.159V407.704L835.769,479.227z M766.488,960.005c0.132-0.013,0.265-0.026,0.398-0.036
	l97.813-8.108V694.346c0.392,0.116,0.787,0.23,1.212,0.23c0.13,0,0.26-0.006,0.391-0.017c9.645-0.861,17.702-6.565,22.922-10.78
	c7.897-6.378,14.718-13.909,20.384-22.226c2.612,16.362,14.383,35.461,14.383,35.461c10.666-10.511,16.043-29.046,14.508-42.382
	c20.076,9.532,49.51,11.386,49.51,11.386c-5.202-31.703-43.117-64.444-60.415-49.785c2.097-12.851,1.998-26.049-0.531-38.826
	c9.591,7.012,21.741,10.867,34.811,10.867c0.444,0,0.892-0.003,1.336-0.011c17.909-0.359,33.932-7.859,43.959-20.578
	c2.441-3.096,4.405-6.649,5.955-10.405v155.882c-5.55-5.18-12.953-8.396-21.145-8.396c-17.183,0-31.112,13.929-31.112,31.112
	c0,4.177,1.847,10.117,4.63,16.707c-4.298-5.719-8.505-10.3-12.116-12.4c-14.854-8.636-33.897-3.595-42.533,11.259
	c-8.635,14.855-3.595,33.897,11.26,42.533c4.953,2.88,14.505,4.429,25.034,5.216c-10.506,1.061-20.014,2.858-24.89,5.865
	c-14.625,9.019-19.169,28.187-10.15,42.812c1.828,2.964,4.088,5.491,6.627,7.597c-13.361,16.437-21.177,37.252-21.709,58.48
	c-0.252,10.211,1.381,18.356,4.991,24.907c5.795,10.523,16.08,16.408,26.025,22.101c3.046,1.744,5.92,3.389,8.685,5.169
	c9.295,5.978,16.861,13.503,22.218,21.875c-0.082,0.253-0.149,0.514-0.185,0.787c-1.532,11.678-9.433,22.99-21.142,30.26
	c-2.857,1.776-5.942,3.309-9.22,4.656c0.258-0.521,0.524-1.026,0.757-1.597c14.216-34.972-62.069-38.442-62.069-38.442
	c3.489,19.211,19.925,38.603,35.37,45.98c-0.937,0.087-1.849,0.194-2.809,0.263c-16.12,1.158-28.59-1.05-38.139-6.741
	c-6.641-3.952-12.023-9.656-17.722-15.692c-2.803-2.97-5.699-6.038-8.773-8.895c-23.964-22.301-60.155-30.993-91.756-22.497
	C747.337,967.225,755.769,961.086,766.488,960.005z M740.556,1019.534v-30.888c0-0.919,0.043-1.825,0.119-2.717
	c18.264-6.16,38.638-5.671,56.993,0.536c-20.237,8.995-35.131,51.487-35.131,51.487c27.687,3.102,63.305-18.922,61.229-37.506
	c1.831,1.432,3.62,2.917,5.323,4.501c2.865,2.664,5.665,5.631,8.371,8.499c5.857,6.206,11.913,12.62,19.596,17.195
	c9.294,5.535,20.683,8.258,34.64,8.258c2.755,0,5.614-0.105,8.572-0.317c17.031-1.22,30.75-5.192,41.938-12.145
	c10.614-6.594,18.598-16.118,22.616-26.588c1.107,3.068,1.933,6.197,2.452,9.361c2.341,14.249-2.316,28.952-11.424,38.496H768.731
	C752.406,1047.706,740.556,1035.858,740.556,1019.534z M1132.607,1019.534c0,16.324-11.846,28.172-28.168,28.172h-137.49
	c7.659-11.14,11.236-25.735,8.909-39.906c-0.713-4.343-1.938-8.617-3.59-12.78c12.114,3.678,25.395,6.841,38.999,6.841
	c1.28,0,2.565-0.028,3.847-0.088c8.711-0.393,16.944-2.277,24.267-5.399c-10.186,34.379,66.829,39.208,66.829,39.208
	c-4.094-24.952-28.455-50.539-47.082-53.173c1.365-1.555,2.627-3.185,3.762-4.894c4.224-6.365,6.734-13.633,8.733-20.56l34.75,3.021
	c0.106,0.009,0.211,0.019,0.317,0.029c15.259,1.546,25.917,13.323,25.917,28.64V1019.534z"/>
</svg>
